<svg width="561" height="561" viewBox="0 0 561 561" fill="none" xmlns="http://www.w3.org/2000/svg">
<rect x="187" y="187" width="187" height="187" fill="#560BAD"/>
<path d="M187 187V187C290.277 187 374 270.723 374 374V553.667C374 557.717 370.717 561 366.667 561H197C191.477 561 187 556.523 187 551V187Z" fill="#7102DF"/>
<path d="M0 3.66667C0 1.64162 1.64162 0 3.66667 0H377.667C478.919 0 561 82.0811 561 183.333V183.333C561 185.358 559.358 187 557.333 187H183.333C82.0811 187 0 104.919 0 3.66667V3.66667Z" fill="#7102DF"/>
</svg>
