<svg width="2000" height="2000" viewBox="0 0 2000 2000" fill="none" xmlns="http://www.w3.org/2000/svg">
<path d="M848 87.7572C942.058 33.4529 1057.94 33.4529 1152 87.7572L1714.03 412.243C1808.08 466.547 1866.03 566.906 1866.03 675.514V1324.49C1866.03 1433.09 1808.08 1533.45 1714.03 1587.76L1152 1912.24C1057.94 1966.55 942.058 1966.55 848 1912.24L285.975 1587.76C191.917 1533.45 133.975 1433.09 133.975 1324.49V675.514C133.975 566.906 191.917 466.547 285.975 412.243L848 87.7572Z" fill="white"/>
<path d="M848 87.7572C942.058 33.4529 1057.94 33.4529 1152 87.7572L1714.03 412.243C1808.08 466.547 1866.03 566.906 1866.03 675.514V1324.49C1866.03 1433.09 1808.08 1533.45 1714.03 1587.76L1152 1912.24C1057.94 1966.55 942.058 1966.55 848 1912.24L285.975 1587.76C191.917 1533.45 133.975 1433.09 133.975 1324.49V675.514C133.975 566.906 191.917 466.547 285.975 412.243L848 87.7572Z" fill="white"/>
<rect x="826.99" y="880.277" width="346.021" height="346.021" fill="#560BAD"/>
<rect x="826.99" y="880.277" width="346.021" height="346.021" fill="#560BAD"/>
<path d="M826.99 880.277C1018.09 880.277 1173.01 1035.2 1173.01 1226.3V1562.32C1173.01 1567.84 1168.53 1572.32 1163.01 1572.32H836.99C831.467 1572.32 826.99 1567.84 826.99 1562.32V880.277Z" fill="#7102DF"/>
<path d="M826.99 880.277C1018.09 880.277 1173.01 1035.2 1173.01 1226.3V1562.32C1173.01 1567.84 1168.53 1572.32 1163.01 1572.32H836.99C831.467 1572.32 826.99 1567.84 826.99 1562.32V880.277Z" fill="#7102DF"/>
<path d="M480.969 541.041C480.969 537.294 484.006 534.256 487.754 534.256H1179.8C1367.15 534.256 1519.03 686.137 1519.03 873.492C1519.03 877.239 1515.99 880.277 1512.25 880.277H820.205C632.85 880.277 480.969 728.396 480.969 541.041Z" fill="#7102DF"/>
<path d="M480.969 541.041C480.969 537.294 484.006 534.256 487.754 534.256H1179.8C1367.15 534.256 1519.03 686.137 1519.03 873.492C1519.03 877.239 1515.99 880.277 1512.25 880.277H820.205C632.85 880.277 480.969 728.396 480.969 541.041Z" fill="#7102DF"/>
</svg>
